%MOIN*%
%OFA0B0*%
%FSLAX36Y36*%
%IPPOS*%
%LPD*%
%ADD10C,0*%
D10*
X005187556Y004133858D02*
X005187556Y004133858D01*
X005191213Y004133688D01*
X005194838Y004133178D01*
X005198401Y004132335D01*
X005201869Y004131164D01*
X005205214Y004129676D01*
X005208406Y004127883D01*
X005211418Y004125802D01*
X005214224Y004123450D01*
X005216799Y004120848D01*
X005219121Y004118018D01*
X005221170Y004114984D01*
X005222929Y004111773D01*
X005224381Y004108412D01*
X005225515Y004104932D01*
X005226321Y004101360D01*
X005226792Y004097730D01*
X005226924Y004094071D01*
X005226715Y004090416D01*
X005226167Y004086797D01*
X005225286Y004083243D01*
X005208860Y004028125D01*
X005208062Y004025733D01*
X005207114Y004023397D01*
X005206017Y004021126D01*
X005204778Y004018930D01*
X005203401Y004016818D01*
X005201891Y004014798D01*
X005200255Y004012880D01*
X005198499Y004011070D01*
X005196632Y004009376D01*
X005194659Y004007805D01*
X005192590Y004006363D01*
X005190434Y004005057D01*
X005188197Y004003892D01*
X005185891Y004002872D01*
X005183525Y004002002D01*
X005181107Y004001285D01*
X005178649Y004000724D01*
X005176160Y004000322D01*
X005173650Y004000080D01*
X005171129Y003999999D01*
X004317059Y003999999D01*
X004314538Y004000080D01*
X004312028Y004000322D01*
X004309539Y004000724D01*
X004307081Y004001285D01*
X004304663Y004002002D01*
X004302297Y004002872D01*
X004299990Y004003892D01*
X004297754Y004005057D01*
X004295598Y004006363D01*
X004293529Y004007805D01*
X004291556Y004009376D01*
X004289689Y004011070D01*
X004287933Y004012880D01*
X004286297Y004014798D01*
X004284787Y004016818D01*
X004283410Y004018930D01*
X004282170Y004021126D01*
X004281074Y004023397D01*
X004280126Y004025733D01*
X004279328Y004028125D01*
X004262902Y004083243D01*
X004262021Y004086797D01*
X004261473Y004090416D01*
X004261264Y004094071D01*
X004261396Y004097730D01*
X004261867Y004101360D01*
X004262673Y004104932D01*
X004263807Y004108412D01*
X004265259Y004111773D01*
X004267018Y004114984D01*
X004269067Y004118018D01*
X004271389Y004120848D01*
X004273964Y004123450D01*
X004276770Y004125802D01*
X004279782Y004127883D01*
X004282974Y004129676D01*
X004286319Y004131164D01*
X004289787Y004132335D01*
X004293350Y004133178D01*
X004296975Y004133688D01*
X004300632Y004133858D01*
X005187556Y004133858D01*
X003214696Y003999999D02*
X003214696Y003999999D01*
X003212176Y004000080D01*
X003209666Y004000322D01*
X003207177Y004000724D01*
X003204718Y004001285D01*
X003202301Y004002002D01*
X003199934Y004002872D01*
X003197628Y004003892D01*
X003195392Y004005057D01*
X003193235Y004006363D01*
X003191166Y004007805D01*
X003189194Y004009376D01*
X003187326Y004011070D01*
X003185571Y004012880D01*
X003183935Y004014798D01*
X003182425Y004016818D01*
X003181048Y004018930D01*
X003179808Y004021126D01*
X003178712Y004023397D01*
X003177763Y004025733D01*
X003176966Y004028125D01*
X003160540Y004083243D01*
X003159658Y004086797D01*
X003159111Y004090416D01*
X003158902Y004094071D01*
X003159034Y004097730D01*
X003159504Y004101360D01*
X003160310Y004104932D01*
X003161445Y004108412D01*
X003162897Y004111773D01*
X003164656Y004114984D01*
X003166705Y004118018D01*
X003169027Y004120848D01*
X003171602Y004123450D01*
X003174408Y004125802D01*
X003177419Y004127883D01*
X003180612Y004129676D01*
X003183956Y004131164D01*
X003187425Y004132335D01*
X003190988Y004133178D01*
X003194613Y004133688D01*
X003198270Y004133858D01*
X004124564Y004133858D01*
X004128221Y004133688D01*
X004131846Y004133178D01*
X004135409Y004132335D01*
X004138877Y004131164D01*
X004142222Y004129676D01*
X004145414Y004127883D01*
X004148426Y004125802D01*
X004151232Y004123450D01*
X004153807Y004120848D01*
X004156129Y004118018D01*
X004158178Y004114984D01*
X004159936Y004111773D01*
X004161389Y004108412D01*
X004162523Y004104932D01*
X004163329Y004101360D01*
X004163800Y004097730D01*
X004163932Y004094071D01*
X004163723Y004090416D01*
X004163175Y004086797D01*
X004162294Y004083243D01*
X004145868Y004028125D01*
X004145070Y004025733D01*
X004144122Y004023397D01*
X004143025Y004021126D01*
X004141786Y004018930D01*
X004140409Y004016818D01*
X004138899Y004014798D01*
X004137263Y004012880D01*
X004135507Y004011070D01*
X004133640Y004009376D01*
X004131667Y004007805D01*
X004129598Y004006363D01*
X004127441Y004005057D01*
X004125205Y004003892D01*
X004122899Y004002872D01*
X004120533Y004002002D01*
X004118115Y004001285D01*
X004115657Y004000724D01*
X004113167Y004000322D01*
X004110658Y004000080D01*
X004108137Y003999999D01*
X003214696Y003999999D01*
X002700000Y005368399D02*
X002700000Y005368399D01*
X002700082Y005370940D01*
X002700328Y005373471D01*
X002700737Y005375981D01*
X002701307Y005378459D01*
X002702035Y005380895D01*
X002702920Y005383279D01*
X002703956Y005385601D01*
X002705141Y005387851D01*
X002706468Y005390020D01*
X002707932Y005392099D01*
X002709527Y005394079D01*
X002711247Y005395951D01*
X002713084Y005397709D01*
X002715031Y005399345D01*
X002717080Y005400851D01*
X002719221Y005402223D01*
X002721446Y005403453D01*
X002723746Y005404537D01*
X002726112Y005405470D01*
X002728532Y005406248D01*
X002784438Y005422255D01*
X002787980Y005423095D01*
X002791584Y005423603D01*
X002795219Y005423776D01*
X002798855Y005423613D01*
X002802461Y005423115D01*
X002806005Y005422286D01*
X002809457Y005421133D01*
X002812789Y005419666D01*
X002815970Y005417898D01*
X002818975Y005415844D01*
X002821777Y005413521D01*
X002824352Y005410949D01*
X002826679Y005408150D01*
X002828738Y005405149D01*
X002830510Y005401970D01*
X002831982Y005398641D01*
X002833140Y005395190D01*
X002833974Y005391647D01*
X002834477Y005388042D01*
X002834645Y005384406D01*
X002834645Y004654963D01*
X002834477Y004651327D01*
X002833974Y004647722D01*
X002833140Y004644179D01*
X002831982Y004640728D01*
X002830510Y004637399D01*
X002828738Y004634220D01*
X002826679Y004631219D01*
X002824352Y004628420D01*
X002821777Y004625848D01*
X002818975Y004623525D01*
X002815970Y004621471D01*
X002812789Y004619703D01*
X002809457Y004618236D01*
X002806005Y004617083D01*
X002802461Y004616254D01*
X002798855Y004615756D01*
X002795219Y004615593D01*
X002791584Y004615766D01*
X002787980Y004616275D01*
X002784438Y004617114D01*
X002728532Y004633121D01*
X002726112Y004633899D01*
X002723746Y004634833D01*
X002721446Y004635916D01*
X002719221Y004637146D01*
X002717080Y004638518D01*
X002715031Y004640024D01*
X002713084Y004641660D01*
X002711247Y004643418D01*
X002709527Y004645290D01*
X002707932Y004647270D01*
X002706468Y004649349D01*
X002705141Y004651518D01*
X002703956Y004653768D01*
X002702920Y004656090D01*
X002702035Y004658474D01*
X002701307Y004660910D01*
X002700737Y004663388D01*
X002700328Y004665898D01*
X002700082Y004668429D01*
X002700000Y004670970D01*
X002700000Y005368399D01*
X002348555Y003999999D02*
X002348555Y003999999D01*
X002346034Y004000080D01*
X002343524Y004000322D01*
X002341035Y004000724D01*
X002338577Y004001285D01*
X002336159Y004002002D01*
X002333793Y004002872D01*
X002331487Y004003892D01*
X002329250Y004005057D01*
X002327094Y004006363D01*
X002325025Y004007805D01*
X002323052Y004009376D01*
X002321185Y004011070D01*
X002319429Y004012880D01*
X002317793Y004014798D01*
X002316283Y004016818D01*
X002314906Y004018930D01*
X002313667Y004021126D01*
X002312570Y004023397D01*
X002311622Y004025733D01*
X002310824Y004028125D01*
X002294398Y004083243D01*
X002293517Y004086797D01*
X002292969Y004090416D01*
X002292760Y004094071D01*
X002292892Y004097730D01*
X002293363Y004101360D01*
X002294169Y004104932D01*
X002295303Y004108412D01*
X002296755Y004111773D01*
X002298514Y004114984D01*
X002300563Y004118018D01*
X002302885Y004120848D01*
X002305460Y004123450D01*
X002308266Y004125802D01*
X002311278Y004127883D01*
X002314470Y004129676D01*
X002317815Y004131164D01*
X002321283Y004132335D01*
X002324846Y004133178D01*
X002328471Y004133688D01*
X002332128Y004133858D01*
X002549999Y004133858D01*
X002554358Y004134046D01*
X002558681Y004134618D01*
X002562940Y004135562D01*
X002567102Y004136874D01*
X002571129Y004138543D01*
X002574999Y004140555D01*
X002578677Y004142901D01*
X002582137Y004145554D01*
X002585354Y004148503D01*
X002588303Y004151720D01*
X002590956Y004155181D01*
X002593303Y004158858D01*
X002595314Y004162728D01*
X002596983Y004166755D01*
X002598295Y004170917D01*
X002599240Y004175177D01*
X002599811Y004179499D01*
X002600000Y004183858D01*
X002600000Y004233858D01*
X002700000Y004333858D01*
X002700000Y004462887D01*
X002700082Y004465429D01*
X002700328Y004467959D01*
X002700737Y004470469D01*
X002701307Y004472947D01*
X002702035Y004475383D01*
X002702920Y004477767D01*
X002703956Y004480089D01*
X002705141Y004482339D01*
X002706468Y004484508D01*
X002707932Y004486587D01*
X002709527Y004488567D01*
X002711247Y004490440D01*
X002713084Y004492197D01*
X002715031Y004493833D01*
X002717080Y004495340D01*
X002719221Y004496711D01*
X002721446Y004497941D01*
X002723746Y004499025D01*
X002726112Y004499958D01*
X002728532Y004500736D01*
X002784438Y004516744D01*
X002787980Y004517583D01*
X002791584Y004518091D01*
X002795219Y004518265D01*
X002798855Y004518101D01*
X002802461Y004517603D01*
X002806005Y004516774D01*
X002809457Y004515621D01*
X002812789Y004514155D01*
X002815970Y004512387D01*
X002818975Y004510332D01*
X002821777Y004508009D01*
X002824352Y004505437D01*
X002826679Y004502639D01*
X002828738Y004499637D01*
X002830510Y004496458D01*
X002831982Y004493129D01*
X002833140Y004489678D01*
X002833974Y004486135D01*
X002834477Y004482530D01*
X002834645Y004478894D01*
X002834645Y004183858D01*
X002834834Y004179499D01*
X002835405Y004175177D01*
X002836350Y004170917D01*
X002837661Y004166755D01*
X002839330Y004162728D01*
X002841342Y004158858D01*
X002843688Y004155181D01*
X002846342Y004151720D01*
X002849291Y004148503D01*
X002852507Y004145554D01*
X002855968Y004142901D01*
X002859645Y004140555D01*
X002863515Y004138543D01*
X002867543Y004136874D01*
X002871704Y004135562D01*
X002875964Y004134618D01*
X002880287Y004134046D01*
X002884645Y004133858D01*
X003022202Y004133858D01*
X003025859Y004133688D01*
X003029484Y004133178D01*
X003033046Y004132335D01*
X003036515Y004131164D01*
X003039860Y004129676D01*
X003043052Y004127883D01*
X003046064Y004125802D01*
X003048869Y004123450D01*
X003051444Y004120848D01*
X003053767Y004118018D01*
X003055816Y004114984D01*
X003057574Y004111773D01*
X003059027Y004108412D01*
X003060161Y004104932D01*
X003060967Y004101360D01*
X003061438Y004097730D01*
X003061569Y004094071D01*
X003061361Y004090416D01*
X003060813Y004086797D01*
X003059932Y004083243D01*
X003043505Y004028125D01*
X003042708Y004025733D01*
X003041759Y004023397D01*
X003040663Y004021126D01*
X003039424Y004018930D01*
X003038046Y004016818D01*
X003036537Y004014798D01*
X003034901Y004012880D01*
X003033145Y004011070D01*
X003031277Y004009376D01*
X003029305Y004007805D01*
X003027236Y004006363D01*
X003025079Y004005057D01*
X003022843Y004003892D01*
X003020537Y004002872D01*
X003018170Y004002002D01*
X003015753Y004001285D01*
X003013295Y004000724D01*
X003010805Y004000322D01*
X003008295Y004000080D01*
X003005775Y003999999D01*
X002348555Y003999999D01*
X002156060Y004133858D02*
X002156060Y004133858D01*
X002159717Y004133688D01*
X002163342Y004133178D01*
X002166905Y004132335D01*
X002170373Y004131164D01*
X002173718Y004129676D01*
X002176910Y004127883D01*
X002179922Y004125802D01*
X002182728Y004123450D01*
X002185303Y004120848D01*
X002187625Y004118018D01*
X002189674Y004114984D01*
X002191432Y004111773D01*
X002192885Y004108412D01*
X002194019Y004104932D01*
X002194825Y004101360D01*
X002195296Y004097730D01*
X002195428Y004094071D01*
X002195219Y004090416D01*
X002194671Y004086797D01*
X002193790Y004083243D01*
X002177364Y004028125D01*
X002176566Y004025733D01*
X002175618Y004023397D01*
X002174521Y004021126D01*
X002173282Y004018930D01*
X002171905Y004016818D01*
X002170395Y004014798D01*
X002168759Y004012880D01*
X002167003Y004011070D01*
X002165136Y004009376D01*
X002163163Y004007805D01*
X002161094Y004006363D01*
X002158938Y004005057D01*
X002156701Y004003892D01*
X002154395Y004002872D01*
X002152029Y004002002D01*
X002149611Y004001285D01*
X002147153Y004000724D01*
X002144664Y004000322D01*
X002142154Y004000080D01*
X002139633Y003999999D01*
X001482413Y003999999D01*
X001479893Y004000080D01*
X001477383Y004000322D01*
X001474893Y004000724D01*
X001472435Y004001285D01*
X001470018Y004002002D01*
X001467651Y004002872D01*
X001465345Y004003892D01*
X001463109Y004005057D01*
X001460952Y004006363D01*
X001458883Y004007805D01*
X001456911Y004009376D01*
X001455043Y004011070D01*
X001453287Y004012880D01*
X001451651Y004014798D01*
X001450142Y004016818D01*
X001448764Y004018930D01*
X001447525Y004021126D01*
X001446429Y004023397D01*
X001445480Y004025733D01*
X001444683Y004028125D01*
X001428256Y004083243D01*
X001427375Y004086797D01*
X001426827Y004090416D01*
X001426619Y004094071D01*
X001426750Y004097730D01*
X001427221Y004101360D01*
X001428027Y004104932D01*
X001429161Y004108412D01*
X001430614Y004111773D01*
X001432372Y004114984D01*
X001434421Y004118018D01*
X001436744Y004120848D01*
X001439319Y004123450D01*
X001442124Y004125802D01*
X001445136Y004127883D01*
X001448328Y004129676D01*
X001451673Y004131164D01*
X001455142Y004132335D01*
X001458704Y004133178D01*
X001462329Y004133688D01*
X001465986Y004133858D01*
X002156060Y004133858D01*
X000616271Y003999999D02*
X000616271Y003999999D01*
X000613751Y004000080D01*
X000611241Y004000322D01*
X000608752Y004000724D01*
X000606293Y004001285D01*
X000603876Y004002002D01*
X000601509Y004002872D01*
X000599203Y004003892D01*
X000596967Y004005057D01*
X000594810Y004006363D01*
X000592741Y004007805D01*
X000590769Y004009376D01*
X000588901Y004011070D01*
X000587146Y004012880D01*
X000585510Y004014798D01*
X000584000Y004016818D01*
X000582622Y004018930D01*
X000581383Y004021126D01*
X000580287Y004023397D01*
X000579338Y004025733D01*
X000578541Y004028125D01*
X000562115Y004083243D01*
X000561233Y004086797D01*
X000560686Y004090416D01*
X000560477Y004094071D01*
X000560608Y004097730D01*
X000561079Y004101360D01*
X000561885Y004104932D01*
X000563019Y004108412D01*
X000564472Y004111773D01*
X000566231Y004114984D01*
X000568280Y004118018D01*
X000570602Y004120848D01*
X000573177Y004123450D01*
X000575982Y004125802D01*
X000578994Y004127883D01*
X000582186Y004129676D01*
X000585531Y004131164D01*
X000589000Y004132335D01*
X000592562Y004133178D01*
X000596188Y004133688D01*
X000599845Y004133858D01*
X001289918Y004133858D01*
X001293575Y004133688D01*
X001297200Y004133178D01*
X001300763Y004132335D01*
X001304232Y004131164D01*
X001307576Y004129676D01*
X001310769Y004127883D01*
X001313780Y004125802D01*
X001316586Y004123450D01*
X001319161Y004120848D01*
X001321483Y004118018D01*
X001323532Y004114984D01*
X001325291Y004111773D01*
X001326743Y004108412D01*
X001327878Y004104932D01*
X001328684Y004101360D01*
X001329154Y004097730D01*
X001329286Y004094071D01*
X001329077Y004090416D01*
X001328530Y004086797D01*
X001327648Y004083243D01*
X001311222Y004028125D01*
X001310425Y004025733D01*
X001309476Y004023397D01*
X001308380Y004021126D01*
X001307140Y004018930D01*
X001305763Y004016818D01*
X001304253Y004014798D01*
X001302617Y004012880D01*
X001300862Y004011070D01*
X001298994Y004009376D01*
X001297022Y004007805D01*
X001294953Y004006363D01*
X001292796Y004005057D01*
X001290560Y004003892D01*
X001288254Y004002872D01*
X001285887Y004002002D01*
X001283469Y004001285D01*
X001281011Y004000724D01*
X001278522Y004000322D01*
X001276012Y004000080D01*
X001273492Y003999999D01*
X000616271Y003999999D01*
X000423776Y004133858D02*
X000423776Y004133858D01*
X000427433Y004133688D01*
X000431059Y004133178D01*
X000434621Y004132335D01*
X000438090Y004131164D01*
X000441435Y004129676D01*
X000444627Y004127883D01*
X000447639Y004125802D01*
X000450444Y004123450D01*
X000453019Y004120848D01*
X000455341Y004118018D01*
X000457391Y004114984D01*
X000459149Y004111773D01*
X000460602Y004108412D01*
X000461736Y004104932D01*
X000462542Y004101360D01*
X000463013Y004097730D01*
X000463144Y004094071D01*
X000462935Y004090416D01*
X000462388Y004086797D01*
X000461507Y004083243D01*
X000445080Y004028125D01*
X000444283Y004025733D01*
X000443334Y004023397D01*
X000442238Y004021126D01*
X000440999Y004018930D01*
X000439621Y004016818D01*
X000438111Y004014798D01*
X000436475Y004012880D01*
X000434720Y004011070D01*
X000432852Y004009376D01*
X000430880Y004007805D01*
X000428811Y004006363D01*
X000426654Y004005057D01*
X000424418Y004003892D01*
X000422112Y004002872D01*
X000419745Y004002002D01*
X000417328Y004001285D01*
X000414869Y004000724D01*
X000412380Y004000322D01*
X000409870Y004000080D01*
X000407350Y003999999D01*
X000000000Y003999999D01*
X000000000Y000000000D01*
X007249999Y000000000D01*
X007249999Y003999999D01*
X005380051Y003999999D01*
X005377530Y004000080D01*
X005375021Y004000322D01*
X005372531Y004000724D01*
X005370073Y004001285D01*
X005367655Y004002002D01*
X005365289Y004002872D01*
X005362983Y004003892D01*
X005360747Y004005057D01*
X005358590Y004006363D01*
X005356521Y004007805D01*
X005354548Y004009376D01*
X005352681Y004011070D01*
X005350925Y004012880D01*
X005349289Y004014798D01*
X005347779Y004016818D01*
X005346402Y004018930D01*
X005345163Y004021126D01*
X005344066Y004023397D01*
X005343118Y004025733D01*
X005342320Y004028125D01*
X005325894Y004083243D01*
X005325013Y004086797D01*
X005324465Y004090416D01*
X005324256Y004094071D01*
X005324388Y004097730D01*
X005324859Y004101360D01*
X005325665Y004104932D01*
X005326799Y004108412D01*
X005328252Y004111773D01*
X005330010Y004114984D01*
X005332059Y004118018D01*
X005334381Y004120848D01*
X005336956Y004123450D01*
X005339762Y004125802D01*
X005342774Y004127883D01*
X005345966Y004129676D01*
X005349311Y004131164D01*
X005352779Y004132335D01*
X005356342Y004133178D01*
X005359967Y004133688D01*
X005363624Y004133858D01*
X005384645Y004133858D01*
X005389003Y004134046D01*
X005393326Y004134618D01*
X005397586Y004135562D01*
X005401747Y004136874D01*
X005405775Y004138543D01*
X005409645Y004140555D01*
X005413322Y004142901D01*
X005416783Y004145554D01*
X005419999Y004148503D01*
X005422948Y004151720D01*
X005425602Y004155181D01*
X005427948Y004158858D01*
X005429960Y004162728D01*
X005431629Y004166755D01*
X005432940Y004170917D01*
X005433885Y004175177D01*
X005434456Y004179499D01*
X005434645Y004183858D01*
X005434645Y004233858D01*
X005534645Y004333858D01*
X005534645Y005623857D01*
X005434645Y005723858D01*
X005434645Y006133858D01*
X005434263Y006142574D01*
X005433126Y006151224D01*
X005431240Y006159740D01*
X005428613Y006168059D01*
X005425275Y006176122D01*
X005421248Y006183858D01*
X005416558Y006191216D01*
X005411251Y006198137D01*
X005405358Y006204570D01*
X005398925Y006210464D01*
X005392003Y006215771D01*
X005384645Y006220460D01*
X005376909Y006224488D01*
X005368846Y006227826D01*
X005360527Y006230452D01*
X005352011Y006232338D01*
X005343362Y006233476D01*
X005334645Y006233858D01*
X002884645Y006233858D01*
X002880287Y006233669D01*
X002875964Y006233098D01*
X002871704Y006232153D01*
X002867543Y006230842D01*
X002863515Y006229173D01*
X002859645Y006227161D01*
X002855968Y006224814D01*
X002852507Y006222161D01*
X002849291Y006219212D01*
X002846342Y006215996D01*
X002843688Y006212535D01*
X002841342Y006208858D01*
X002839330Y006204988D01*
X002837661Y006200960D01*
X002836350Y006196799D01*
X002835405Y006192539D01*
X002834834Y006188216D01*
X002834645Y006183858D01*
X002834645Y005560475D01*
X002834477Y005556839D01*
X002833974Y005553234D01*
X002833140Y005549691D01*
X002831982Y005546240D01*
X002830510Y005542911D01*
X002828738Y005539732D01*
X002826679Y005536731D01*
X002824352Y005533932D01*
X002821777Y005531360D01*
X002818975Y005529037D01*
X002815970Y005526983D01*
X002812789Y005525214D01*
X002809457Y005523748D01*
X002806005Y005522595D01*
X002802461Y005521766D01*
X002798855Y005521268D01*
X002795219Y005521105D01*
X002791584Y005521278D01*
X002787980Y005521786D01*
X002784438Y005522625D01*
X002728532Y005538633D01*
X002726112Y005539411D01*
X002723746Y005540344D01*
X002721446Y005541428D01*
X002719221Y005542658D01*
X002717080Y005544029D01*
X002715031Y005545536D01*
X002713084Y005547172D01*
X002711247Y005548929D01*
X002709527Y005550802D01*
X002707932Y005552782D01*
X002706468Y005554861D01*
X002705141Y005557030D01*
X002703956Y005559280D01*
X002702920Y005561602D01*
X002702035Y005563986D01*
X002701307Y005566422D01*
X002700737Y005568900D01*
X002700328Y005571410D01*
X002700082Y005573940D01*
X002700000Y005576482D01*
X002700000Y005623857D01*
X002600000Y005723858D01*
X002600000Y006133858D01*
X002599617Y006142574D01*
X002598480Y006151224D01*
X002596594Y006159740D01*
X002593968Y006168059D01*
X002590629Y006176122D01*
X002586602Y006183858D01*
X002581913Y006191216D01*
X002576606Y006198137D01*
X002570712Y006204570D01*
X002564279Y006210464D01*
X002557358Y006215771D01*
X002549999Y006220460D01*
X002542263Y006224488D01*
X002534200Y006227826D01*
X002525881Y006230452D01*
X002517366Y006232338D01*
X002508716Y006233476D01*
X002500000Y006233858D01*
X000049999Y006233858D01*
X000045641Y006233669D01*
X000041318Y006233098D01*
X000037059Y006232153D01*
X000032897Y006230842D01*
X000028870Y006229173D01*
X000024999Y006227161D01*
X000021322Y006224814D01*
X000017862Y006222161D01*
X000014645Y006219212D01*
X000011696Y006215996D01*
X000009043Y006212535D01*
X000006696Y006208858D01*
X000004685Y006204988D01*
X000003015Y006200960D01*
X000001704Y006196799D01*
X000000759Y006192539D01*
X000000188Y006188216D01*
X000000000Y006183858D01*
X000000000Y004183858D01*
X000000188Y004179499D01*
X000000759Y004175177D01*
X000001704Y004170917D01*
X000003015Y004166755D01*
X000004685Y004162728D01*
X000006696Y004158858D01*
X000009043Y004155181D01*
X000011696Y004151720D01*
X000014645Y004148503D01*
X000017862Y004145554D01*
X000021322Y004142901D01*
X000024999Y004140555D01*
X000028870Y004138543D01*
X000032897Y004136874D01*
X000037059Y004135562D01*
X000041318Y004134618D01*
X000045641Y004134046D01*
X000049999Y004133858D01*
X000423776Y004133858D01*
M02*